HIERARCHY
ROOT hip
{
	OFFSET 0.000000 0.000000 0.000000 
	CHANNELS 6 Xposition Yposition Zposition Xrotation Zrotation Yrotation
	JOINT abdomen
	{
		OFFSET 0.000000 3.402643 0.000000 
		CHANNELS 3 Xrotation Zrotation Yrotation
		JOINT chest
		{
			OFFSET 0.000000 8.438565 -0.680529 
			CHANNELS 3 Xrotation Zrotation Yrotation
			JOINT neck
			{
				OFFSET 0.000000 10.207942 -0.272212 
				CHANNELS 3 Xrotation Zrotation Yrotation
				JOINT head
				{
					OFFSET 0.000000 3.130431 0.000000 
					CHANNELS 3 Xrotation Zrotation Yrotation
					End Site
					{
						OFFSET 0.000000 3.130435 0.000000 
					}
				}
			}
			JOINT lCollar
			{
				OFFSET 3.470700 6.669187 -0.816635 
				CHANNELS 3 Yrotation Zrotation Xrotation
				JOINT lShldr
				{
					OFFSET 3.198488 0.000000 0.000000 
					CHANNELS 3 Zrotation Yrotation Xrotation
					JOINT lForeArm
					{
						OFFSET 10.139888 0.000000 0.000000 
						CHANNELS 3 Yrotation Zrotation Xrotation
						JOINT lHand
						{
							OFFSET 8.370511 0.000000 0.000000 
							CHANNELS 3 Zrotation Yrotation Xrotation
							End Site
							{
								OFFSET 4.083176 0.000000 0.000000 
							}
						}
					}
				}
			}
			JOINT rCollar
			{
				OFFSET -3.470700 6.669187 -0.816635 
				CHANNELS 3 Yrotation Zrotation Xrotation
				JOINT rShldr
				{
					OFFSET -3.198488 0.000000 0.000000 
					CHANNELS 3 Zrotation Yrotation Xrotation
					JOINT rForeArm
					{
						OFFSET -10.139888 0.000000 0.000000 
						CHANNELS 3 Yrotation Zrotation Xrotation
						JOINT rHand
						{
							OFFSET -8.370511 0.000000 0.000000 
							CHANNELS 3 Zrotation Yrotation Xrotation
							End Site
							{
								OFFSET -4.083176 0.000000 0.000000 
							}
						}
					}
				}
			}
		}
	}
	JOINT lThigh
	{
		OFFSET 5.308129 -1.633274 1.361059 
		CHANNELS 3 Xrotation Zrotation Yrotation
		JOINT lShin
		{
			OFFSET -2.041588 -20.007561 0.000000 
			CHANNELS 3 Xrotation Zrotation Yrotation
			JOINT lFoot
			{
				OFFSET 0.000000 -19.190928 -1.224953 
				CHANNELS 3 Xrotation Yrotation Zrotation
				End Site
				{
					OFFSET 0.000000 -2.449906 4.627600 
				}
			}
		}
	}
	JOINT rThigh
	{
		OFFSET -5.308129 -1.633274 1.361059 
		CHANNELS 3 Xrotation Zrotation Yrotation
		JOINT rShin
		{
			OFFSET 2.041588 -20.007561 0.000000 
			CHANNELS 3 Xrotation Zrotation Yrotation
			JOINT rFoot
			{
				OFFSET 0.000000 -19.190928 -1.224953 
				CHANNELS 3 Xrotation Yrotation Zrotation
				End Site
				{
					OFFSET 0.000000 -2.449906 4.627600 
				}
			}
		}
	}
}
MOTION
Frames: 16
Frame Time: 0.016667
0.576728 40.863358 2.322277 5.554380 2.974280 -16.634600 -9.802820 -1.093270 3.918200 20.556601 -1.972660 2.128570 -18.111601 -6.071110 21.494900 2.219670 1.428670 10.434900 2.000000 -2.000000 0.000000 -71.371300 -2.383840 144.623993 74.600098 -0.251155 0.131857 -179.903000 -179.880997 -4.616980 -2.000000 2.000000 0.000000 82.630402 10.428300 159.692993 -53.984901 0.295239 0.110590 -0.091193 0.098880 -170.662003 -28.439337 1.772299 15.964860 52.852417 1.245737 3.803942 16.813833 -7.127369 2.393756 -19.965933 -5.938702 -4.865770 54.879055 -1.577309 -3.704578 -8.454221 -8.765114 -1.879835 
0.835111 41.155369 3.967032 5.877930 3.128030 -17.226900 -10.685400 -0.790567 4.114990 19.608999 -1.591580 2.204050 -17.245100 -6.072580 21.983500 2.483510 1.486890 10.674300 2.000000 -2.000000 0.000000 -73.007599 1.204200 141.628998 73.203697 -0.254357 0.130934 0.111029 -0.139749 168.966995 -2.000000 2.000000 0.000000 82.366096 7.204330 160.291000 -55.098202 0.293075 0.112131 179.912994 179.903000 5.968970 -28.853809 1.764232 13.243917 54.537769 1.179637 3.858028 16.149031 -5.632234 2.002006 -19.743378 -6.445398 -6.111071 53.112576 -1.679341 -3.623948 -6.509101 -9.209583 -1.657811 
1.035526 41.548279 5.663058 5.906890 3.059870 -18.062401 -11.038500 -0.872956 4.478740 19.521000 -1.806350 2.366620 -17.347601 -6.046530 22.154301 2.395360 1.321050 10.725500 2.000000 -2.000000 0.000000 -74.031097 5.263780 140.050003 73.897003 -0.252770 0.131402 0.131631 -0.142640 160.324005 -2.000000 2.000000 0.000000 82.785797 5.113520 160.714996 -55.645000 0.292001 0.112873 179.910004 179.889999 4.269760 -28.319166 3.835608 14.743595 55.536957 1.154042 3.896914 11.301323 3.690996 0.071129 -18.574057 -6.696918 -6.695679 50.911354 -1.843753 -3.501617 -4.104702 -9.533363 -1.352181 
1.183865 41.733604 7.314644 5.778070 2.730220 -19.010799 -11.651700 -0.698945 4.873490 18.778601 -1.581270 2.539300 -16.838200 -6.034250 21.839199 2.532030 1.262280 10.544600 2.000000 -2.000000 0.000000 -75.621201 9.684520 138.332993 74.033699 -0.252457 0.131492 0.149901 -0.160418 153.195007 -2.000000 2.000000 0.000000 82.971497 2.758360 161.442001 -55.947800 0.291404 0.113279 179.899994 179.889008 4.123280 -27.634926 6.187305 15.386470 55.189880 1.248996 3.850640 6.047201 11.465829 -0.109050 -17.105137 -6.608109 -6.746854 49.054127 -1.971608 -3.404351 -0.926572 -9.771564 -0.849874 
1.343823 41.669895 8.969947 5.506650 3.198090 -19.437901 -12.495500 -0.433232 5.019160 17.704901 -0.575458 2.557960 -15.694800 -6.049340 20.973301 2.834990 1.359450 10.119600 2.000000 -2.000000 0.000000 -78.255501 14.260200 135.835007 74.404800 -0.251604 0.131733 0.167375 -0.165711 146.671997 -2.000000 2.000000 0.000000 82.669197 0.198068 162.188004 -56.123501 0.291056 0.113513 179.910995 179.899994 4.484580 -26.919386 6.810779 13.798545 53.242203 1.453337 3.715653 2.459583 12.226456 0.780843 -15.717627 -7.692580 -6.723164 48.320866 -2.100954 -3.313356 0.266199 -8.778677 -0.671358 
1.465138 41.512894 10.634048 5.419200 3.305510 -19.520500 -12.462700 -0.830410 5.254260 18.320101 -0.780655 2.618380 -15.642100 -5.511870 19.382999 2.776620 1.515750 9.382390 2.000000 -2.000000 0.000000 -80.438400 16.891399 132.503998 75.547401 -0.248971 0.132439 0.179139 -0.168093 142.384995 -2.000000 2.000000 0.000000 83.831398 -0.866516 162.244003 -56.396999 0.290513 0.113876 179.912003 179.901993 5.207230 -26.511757 7.897130 11.761916 50.624397 1.726166 3.533967 -0.597049 11.563426 1.591519 -14.228397 -8.400629 -6.994048 47.981236 -2.211449 -3.271244 1.864599 -7.915703 -0.483120 
1.545538 41.150478 12.308606 5.538400 3.615900 -19.190100 -12.489800 -0.971010 5.375730 19.013599 -0.370959 2.617410 -15.678300 -4.444320 16.973400 2.562300 1.984660 8.319940 2.000000 -2.000000 0.000000 -83.830803 18.926600 128.779999 77.412598 -0.244644 0.133479 0.183764 -0.168782 140.714996 -2.000000 2.000000 0.000000 84.280899 -1.765750 162.593002 -56.123501 0.291056 0.113513 179.912003 179.901001 5.158410 -26.558952 9.054381 10.862565 47.819706 1.971298 3.338095 -2.052963 11.413683 2.023570 -12.640418 -9.269861 -7.472424 47.778530 -2.309815 -3.220513 3.425558 -6.680202 -0.389272 
1.627208 40.551392 13.981211 6.222300 3.456130 -18.197100 -12.977900 -1.319770 5.530360 19.326000 -0.868940 2.655380 -14.359800 -2.703330 13.267500 2.885840 2.862980 6.722010 2.000000 -2.000000 0.000000 -86.431702 20.581499 125.098999 79.922401 -0.238772 0.134655 0.188842 -0.159615 138.889008 -2.000000 2.000000 0.000000 85.677696 -3.875250 162.647003 -56.572800 0.290163 0.114107 179.910004 179.889999 4.269760 -27.404522 10.746168 10.282777 45.319008 2.183932 3.174786 -2.659525 11.545497 2.237448 -10.979718 -9.374041 -8.529943 47.665382 -2.390809 -3.188892 2.224741 -7.743233 -0.613556 
1.717775 39.861187 15.689201 7.258080 3.284080 -16.593300 -13.420200 -1.289880 5.758160 20.087799 -0.917938 2.722350 -12.607300 0.122705 8.240370 3.219980 4.278450 4.619280 2.000000 -2.000000 0.000000 -89.384499 21.534401 121.976997 83.291496 -0.230820 0.135827 0.191265 -0.169608 138.020004 -2.000000 2.000000 0.000000 86.615402 -6.637850 162.171997 -57.246601 0.288816 0.114985 179.906998 179.895996 2.521700 -29.014175 12.066279 8.559436 43.613056 2.348225 3.052429 -3.188301 10.970123 2.383475 -9.112060 -9.291764 -10.225250 47.236504 -2.504919 -3.139144 -0.755010 -10.322998 -1.197227 
1.776966 39.110500 17.405390 7.962960 3.356070 -14.686700 -13.620500 -1.175670 6.151400 20.986401 -0.605452 2.885980 -11.886500 3.620830 2.471280 3.515960 5.996780 2.224600 2.000000 -2.000000 0.000000 -91.693199 21.404301 119.399002 87.012199 -0.221975 0.136577 0.193855 -0.169811 137.091995 -2.000000 2.000000 0.000000 87.651001 -9.702480 161.382996 -58.359901 0.286568 0.116401 179.903000 179.891006 0.295145 -30.898455 12.787564 6.819665 42.514248 2.500603 2.956732 -3.676260 10.222963 2.459501 -6.487234 -9.222639 -11.786860 46.273140 -2.691116 -3.049114 -3.630853 -12.146561 -1.961374 
1.773372 38.178215 19.090801 8.241420 2.667520 -12.435500 -13.828600 -0.877824 6.760390 21.503901 -0.507743 3.194640 -7.289680 17.363701 -13.748300 7.525740 10.754400 -3.738780 2.000000 -2.000000 0.000000 -92.697197 21.071400 118.617996 91.221298 -0.211727 0.156259 0.192792 -0.169733 137.473007 -2.000000 2.000000 0.000000 89.311798 -13.547000 159.977997 -59.619701 0.283992 0.117949 179.899002 179.876999 -1.931410 -32.733620 13.932690 5.050194 42.065689 2.597585 2.903556 -2.466682 8.665989 2.201965 -2.870589 -7.685754 -12.573388 44.782932 -2.943205 -2.892404 -8.343506 -15.336360 -3.444639 
1.808701 37.185863 20.823843 8.411810 1.671290 -10.172600 -13.830400 -0.562338 7.552880 22.275499 -0.712570 3.601540 -10.352700 28.772200 -30.229099 9.930190 14.980300 -9.776490 2.000000 -2.000000 0.000000 -92.815498 19.959000 119.342003 95.488800 -0.200838 0.155619 0.191102 -0.169594 138.078003 -2.000000 2.000000 0.000000 90.914001 -16.619699 158.417999 -59.199699 0.284855 0.117440 179.895004 179.873993 -3.591560 -34.630280 15.025023 2.934646 43.083755 2.614763 2.940069 -5.133874 6.743917 2.465745 1.015566 -5.255938 -12.234557 42.200729 -3.225871 -2.732982 -10.302698 -18.758116 -4.777772 
1.807826 36.122807 22.285700 8.310820 0.463828 -7.100140 -14.071700 -0.219134 7.951580 21.953300 -0.820069 3.847060 -12.664100 30.678200 -35.337101 10.213900 16.546600 -11.864000 2.000000 -2.000000 0.000000 -92.144203 18.759501 120.759003 99.795502 -0.189928 0.154154 0.193310 -0.169772 137.287003 -2.000000 2.000000 0.000000 92.536003 -19.585400 157.044006 -58.242699 0.286806 0.116254 179.891998 179.871002 -5.105240 -37.237637 16.248688 1.095435 47.144562 2.416046 3.161999 -6.884627 4.933394 2.453989 5.037348 -2.139480 -11.597906 40.114815 -3.484360 -2.555055 -15.001490 -22.329237 -7.141377 
1.734671 34.952354 23.683075 7.715820 -0.909659 -4.381190 -13.991100 0.237723 8.484420 21.650499 -0.732288 4.175350 -16.408199 32.249500 -40.669201 10.106300 18.396999 -13.827000 2.000000 -2.000000 0.000000 -91.035202 16.926600 123.151001 103.808998 -0.179885 0.152054 0.193937 -0.169817 137.063004 -2.000000 2.000000 0.000000 93.621002 -21.381001 156.464005 -55.977100 0.291346 0.113318 179.889999 179.869003 -6.003680 -39.614609 18.167290 -0.133119 53.875423 2.004972 3.488254 -10.587302 -0.366953 1.963845 8.206563 1.312402 -10.558407 40.114643 -3.693456 -2.520488 -18.996992 -25.221607 -9.433883 
1.543696 33.668217 24.958002 6.818330 -1.357520 -1.295300 -13.386000 0.298742 8.639440 21.640600 -0.156222 4.274360 -19.283899 34.130798 -45.166401 10.701300 20.260799 -15.111800 2.000000 -2.000000 0.000000 -89.613297 13.873300 125.635002 107.197998 -0.171538 0.149738 0.192737 -0.169729 137.492004 -2.000000 2.000000 0.000000 94.129303 -21.050699 157.246002 -52.217300 0.298611 0.108058 179.889999 179.869003 -6.052510 -41.497669 18.974775 -0.917855 59.611595 1.588487 3.773096 -14.228401 -3.074978 1.300544 10.735528 3.979859 -10.340409 41.512363 -3.767414 -2.566387 -22.534855 -26.234728 -11.289506 
1.211579 32.877579 26.322014 6.650710 -0.562595 0.842512 -12.734100 -0.231157 9.064780 21.992201 0.400265 4.404630 -22.994801 35.364799 -49.365501 10.796200 22.239201 -16.198000 2.000000 -2.000000 0.000000 -87.781502 9.941640 128.365005 109.805000 -0.165217 0.147622 0.190693 -0.169558 138.225006 -2.000000 2.000000 0.000000 94.431702 -19.051901 158.695999 -47.217300 0.307710 0.100346 179.893005 179.871002 -4.734130 -42.073139 18.816431 -0.598567 63.185337 1.304930 3.932399 -16.901512 -4.750821 0.706708 11.660783 4.638085 -11.780030 43.589199 -3.717461 -2.660778 -24.425676 -23.504688 -11.059232 
